Coordinates
version=1
nRows=14
nColumns=24
inDegrees=yes

Units are S.I. units (second, meters, Newtons, ...)
Angles are in degrees.

endheader
time	pelvis_tilt	pelvis_list	pelvis_rotation	pelvis_tx	pelvis_ty	pelvis_tz	hip_flexion_r	hip_adduction_r	hip_rotation_r	knee_angle_r	ankle_angle_r	subtalar_angle_r	mtp_angle_r	hip_flexion_l	hip_adduction_l	hip_rotation_l	knee_angle_l	ankle_angle_l	subtalar_angle_l	mtp_angle_l	lumbar_extension	lumbar_bending	lumbar_rotation
      0.56700000	      0.43521759	      2.01404733	      6.97217373	     -0.89191095	      1.01251383	      0.30718718	     23.73566063	     -2.68346527	     -6.81035244	     -0.14388262	      6.83448547	     -2.16304453	      7.45938424	    -12.16013066	      5.14006225	      9.56832084	    -14.31540511	     14.35112282	     -8.98033129	     -2.66979980	     -4.49032531	     -4.36792811	     -3.17103565
      0.57116667	      0.47947768	      1.87584481	      7.08771182	     -0.88577573	      1.01205772	      0.30743333	     23.73518909	     -2.49630671	     -6.61388817	     -0.79382006	      6.91003992	     -2.41583573	      7.47337813	    -12.18547795	      4.93494819	      9.46002433	    -15.07419663	     14.51188528	     -8.67382872	     -2.65286714	     -4.46256664	     -4.20510715	     -3.26388008
      0.57533333	      0.55998234	      1.72445896	      7.21028745	     -0.87960590	      1.01168126	      0.30767788	     23.66777328	     -2.28620018	     -6.37347508	     -1.41231111	      6.86038697	     -2.83231968	      7.49688188	    -12.25336156	      4.71348868	      9.41144542	    -15.82433993	     14.57371937	     -8.51620736	     -2.61651200	     -4.46343343	     -4.01853385	     -3.38113393
      0.57950000	      0.62554083	      1.58194446	      7.33303449	     -0.87339901	      1.01131147	      0.30793750	     23.60749093	     -2.08255504	     -6.12991476	     -2.03750422	      6.74992094	     -3.28113562	      7.53350712	    -12.29663489	      4.50280762	      9.37185637	    -16.58828669	     14.59725953	     -8.36910962	     -2.55618018	     -4.44683245	     -3.85181204	     -3.49917886
      0.58366667	      0.71832678	      1.41450377	      7.45722656	     -0.86715019	      1.01099743	      0.30821305	     23.50171559	     -1.84487699	     -5.89051501	     -2.64092009	      6.59028935	     -3.74414262	      7.57414246	    -12.35596123	      4.26066686	      9.34097416	    -17.37102644	     14.58484321	     -8.23509146	     -2.48417759	     -4.45440704	     -3.63106529	     -3.61209099
      0.58783333	      0.81905412	      1.27010511	      7.57463524	     -0.86086740	      1.01070405	      0.30853587	     23.37506807	     -1.61925802	     -5.63412902	     -3.22407985	      6.28627016	     -4.33257346	      7.64111466	    -12.40383481	      4.03295138	      9.23692934	    -18.19167460	     14.55888917	     -8.02925535	     -2.35988763	     -4.47063818	     -3.47919064	     -3.74201633
      0.59200000	      0.91172058	      1.11901625	      7.69639745	     -0.85454207	      1.01042698	      0.30887170	     23.24319720	     -1.38466707	     -5.38109649	     -3.78634902	      5.93834253	     -4.91936935	      7.72840733	    -12.44156415	      3.79642853	      9.15719606	    -19.01111000	     14.46891292	     -7.85919872	     -2.19419894	     -4.46780395	     -3.30398417	     -3.86278192
      0.59616667	      1.02514711	      0.94487207	      7.82252524	     -0.84816542	      1.01022197	      0.30920399	     23.07253659	     -1.12425374	     -5.17419629	     -4.31420582	      5.52596427	     -5.43148167	      7.80108019	    -12.48832027	      3.52990592	      9.08316824	    -19.84500498	     14.30743827	     -7.71538774	     -2.04931509	     -4.47909054	     -3.07846903	     -3.97274109
      0.60033333	      1.13212724	      0.80038667	      7.93418654	     -0.84180409	      1.00999891	      0.30962507	     22.90414388	     -0.87755361	     -4.89489192	     -4.82282733	      5.00355154	     -6.15121074	      7.92082059	    -12.50766324	      3.28652305	      8.94806374	    -20.71850141	     14.19094880	     -7.48062026	     -1.80744569	     -4.48406572	     -2.93507727	     -4.10701295
      0.60450000	      1.23718932	      0.64034090	      8.05044692	     -0.83538260	      1.00981565	      0.31005046	     22.72136985	     -0.61576902	     -4.65737615	     -5.29318961	      4.40873957	     -6.79537245	      8.05555084	    -12.51919697	      3.02172902	      8.81847681	    -21.58931074	     13.97310855	     -7.28167267	     -1.52772952	     -4.48028005	     -2.75093360	     -4.22421547
      0.60866667	      1.36454550	      0.47394388	      8.15996007	     -0.82892151	      1.00969759	      0.31051101	     22.50333534	     -0.33894792	     -4.43492125	     -5.73334918	      3.75253810	     -7.42647742	      8.20176240	    -12.54178893	      2.73871045	      8.65273676	    -22.46839068	     13.71705584	     -7.04889855	     -1.21298127	     -4.49311181	     -2.55968207	     -4.33249323
      0.61283333	      1.45986236	      0.31419016	      8.26667701	     -0.82245290	      1.00954117	      0.31101683	     22.31765411	     -0.06871182	     -4.20489057	     -6.16110416	      3.04583963	     -8.06891685	      8.37297202	    -12.50873509	      2.46026835	      8.46871831	    -23.38907081	     13.40057396	     -6.80764860	     -0.83125262	     -4.46498178	     -2.39335442	     -4.44237929
      0.61700000	      1.59535783	      0.14337484	      8.36723245	     -0.81593170	      1.00948962	      0.31154461	     22.08216180	      0.21769356	     -4.03571045	     -6.56722961	      2.30180597	     -8.61959446	     10.07773180	    -12.51606077	      2.15193022	      8.24295270	    -24.28383481	     12.90959874	     -6.58218686	      2.90732212	     -4.47197052	     -2.20369743	     -4.35557389
      0.62116667	      1.66213022	     -0.01462764	      8.47251250	     -0.80942930	      1.00936428	      0.31209691	     21.92646873	      0.48104475	     -3.85917008	     -6.98510527	      1.54692173	     -9.15943213	     10.08678038	    -12.41856628	      1.86402658	      8.02196251	    -25.23920281	     12.51723492	     -6.32565670	      2.99816054	     -4.40595158	     -2.04675314	     -4.64501780
